<mxfile host="app.diagrams.net" modified="2024-01-24T15:32:24.055Z" agent="Mozilla/5.0 (X11; Ubuntu; Linux x86_64; rv:109.0) Gecko/20100101 Firefox/119.0" etag="Zji8wa068REbOP8ziXWt" version="22.1.21" type="github">
  <diagram id="C5RBs43oDa-KdzZeNtuy" name="Page-1">
    <mxGraphModel dx="2607" dy="1393" grid="1" gridSize="10" guides="1" tooltips="1" connect="1" arrows="1" fold="1" page="1" pageScale="1" pageWidth="827" pageHeight="1169" math="0" shadow="0">
      <root>
        <mxCell id="WIyWlLk6GJQsqaUBKTNV-0" />
        <mxCell id="WIyWlLk6GJQsqaUBKTNV-1" parent="WIyWlLk6GJQsqaUBKTNV-0" />
        <mxCell id="Gj214TnAQ4UsBlxBKr0H-0" value="Agent" style="swimlane;fontStyle=2;align=center;verticalAlign=top;childLayout=stackLayout;horizontal=1;startSize=26;horizontalStack=0;resizeParent=1;resizeLast=0;collapsible=1;marginBottom=0;rounded=0;shadow=0;strokeWidth=1;" vertex="1" parent="WIyWlLk6GJQsqaUBKTNV-1">
          <mxGeometry x="220" y="60" width="160" height="554" as="geometry">
            <mxRectangle x="230" y="140" width="160" height="26" as="alternateBounds" />
          </mxGeometry>
        </mxCell>
        <mxCell id="Gj214TnAQ4UsBlxBKr0H-1" value="amountOfWood" style="text;html=1;align=center;verticalAlign=middle;resizable=0;points=[];autosize=1;strokeColor=none;fillColor=none;" vertex="1" parent="Gj214TnAQ4UsBlxBKr0H-0">
          <mxGeometry y="26" width="160" height="30" as="geometry" />
        </mxCell>
        <mxCell id="Gj214TnAQ4UsBlxBKr0H-2" value="amountOfLeaves" style="text;html=1;align=center;verticalAlign=middle;resizable=0;points=[];autosize=1;strokeColor=none;fillColor=none;" vertex="1" parent="Gj214TnAQ4UsBlxBKr0H-0">
          <mxGeometry y="56" width="160" height="30" as="geometry" />
        </mxCell>
        <mxCell id="Gj214TnAQ4UsBlxBKr0H-3" value="amountOfFruits" style="text;html=1;align=center;verticalAlign=middle;resizable=0;points=[];autosize=1;strokeColor=none;fillColor=none;" vertex="1" parent="Gj214TnAQ4UsBlxBKr0H-0">
          <mxGeometry y="86" width="160" height="30" as="geometry" />
        </mxCell>
        <mxCell id="Gj214TnAQ4UsBlxBKr0H-4" value="amountOfGrass" style="text;html=1;align=center;verticalAlign=middle;resizable=0;points=[];autosize=1;strokeColor=none;fillColor=none;" vertex="1" parent="Gj214TnAQ4UsBlxBKr0H-0">
          <mxGeometry y="116" width="160" height="30" as="geometry" />
        </mxCell>
        <mxCell id="Gj214TnAQ4UsBlxBKr0H-5" value="maxAmountOfWood" style="text;html=1;align=center;verticalAlign=middle;resizable=0;points=[];autosize=1;strokeColor=none;fillColor=none;" vertex="1" parent="Gj214TnAQ4UsBlxBKr0H-0">
          <mxGeometry y="146" width="160" height="30" as="geometry" />
        </mxCell>
        <mxCell id="Gj214TnAQ4UsBlxBKr0H-6" value="maxAmountOfLeaves" style="text;html=1;align=center;verticalAlign=middle;resizable=0;points=[];autosize=1;strokeColor=none;fillColor=none;" vertex="1" parent="Gj214TnAQ4UsBlxBKr0H-0">
          <mxGeometry y="176" width="160" height="30" as="geometry" />
        </mxCell>
        <mxCell id="Gj214TnAQ4UsBlxBKr0H-7" value="maxAmountOfFruits" style="text;html=1;align=center;verticalAlign=middle;resizable=0;points=[];autosize=1;strokeColor=none;fillColor=none;" vertex="1" parent="Gj214TnAQ4UsBlxBKr0H-0">
          <mxGeometry y="206" width="160" height="30" as="geometry" />
        </mxCell>
        <mxCell id="Gj214TnAQ4UsBlxBKr0H-8" value="maxAmountOfGrass" style="text;html=1;align=center;verticalAlign=middle;resizable=0;points=[];autosize=1;strokeColor=none;fillColor=none;" vertex="1" parent="Gj214TnAQ4UsBlxBKr0H-0">
          <mxGeometry y="236" width="160" height="30" as="geometry" />
        </mxCell>
        <mxCell id="Gj214TnAQ4UsBlxBKr0H-9" value="" style="line;html=1;strokeWidth=1;align=left;verticalAlign=middle;spacingTop=-1;spacingLeft=3;spacingRight=3;rotatable=0;labelPosition=right;points=[];portConstraint=eastwest;" vertex="1" parent="Gj214TnAQ4UsBlxBKr0H-0">
          <mxGeometry y="266" width="160" height="8" as="geometry" />
        </mxCell>
        <mxCell id="Gj214TnAQ4UsBlxBKr0H-10" value="&lt;div&gt;collectWood()&lt;/div&gt;" style="text;html=1;align=center;verticalAlign=middle;resizable=0;points=[];autosize=1;strokeColor=none;fillColor=none;" vertex="1" parent="Gj214TnAQ4UsBlxBKr0H-0">
          <mxGeometry y="274" width="160" height="30" as="geometry" />
        </mxCell>
        <mxCell id="Gj214TnAQ4UsBlxBKr0H-11" value="&lt;div&gt;collectLeaves()&lt;/div&gt;" style="text;html=1;align=center;verticalAlign=middle;resizable=0;points=[];autosize=1;strokeColor=none;fillColor=none;" vertex="1" parent="Gj214TnAQ4UsBlxBKr0H-0">
          <mxGeometry y="304" width="160" height="30" as="geometry" />
        </mxCell>
        <mxCell id="Gj214TnAQ4UsBlxBKr0H-12" value="&lt;div&gt;collectFruits()&lt;/div&gt;" style="text;html=1;align=center;verticalAlign=middle;resizable=0;points=[];autosize=1;strokeColor=none;fillColor=none;" vertex="1" parent="Gj214TnAQ4UsBlxBKr0H-0">
          <mxGeometry y="334" width="160" height="30" as="geometry" />
        </mxCell>
        <mxCell id="Gj214TnAQ4UsBlxBKr0H-13" value="&lt;div&gt;collectGrass()&lt;/div&gt;" style="text;html=1;align=center;verticalAlign=middle;resizable=0;points=[];autosize=1;strokeColor=none;fillColor=none;" vertex="1" parent="Gj214TnAQ4UsBlxBKr0H-0">
          <mxGeometry y="364" width="160" height="30" as="geometry" />
        </mxCell>
        <mxCell id="Gj214TnAQ4UsBlxBKr0H-14" value="&lt;div&gt;consumeWood()&lt;/div&gt;" style="text;html=1;align=center;verticalAlign=middle;resizable=0;points=[];autosize=1;strokeColor=none;fillColor=none;" vertex="1" parent="Gj214TnAQ4UsBlxBKr0H-0">
          <mxGeometry y="394" width="160" height="30" as="geometry" />
        </mxCell>
        <mxCell id="Gj214TnAQ4UsBlxBKr0H-15" value="&lt;div&gt;consumeLeaves()&lt;/div&gt;" style="text;html=1;align=center;verticalAlign=middle;resizable=0;points=[];autosize=1;strokeColor=none;fillColor=none;" vertex="1" parent="Gj214TnAQ4UsBlxBKr0H-0">
          <mxGeometry y="424" width="160" height="30" as="geometry" />
        </mxCell>
        <mxCell id="Gj214TnAQ4UsBlxBKr0H-16" value="&lt;div&gt;consumeFruits()&lt;/div&gt;" style="text;html=1;align=center;verticalAlign=middle;resizable=0;points=[];autosize=1;strokeColor=none;fillColor=none;" vertex="1" parent="Gj214TnAQ4UsBlxBKr0H-0">
          <mxGeometry y="454" width="160" height="30" as="geometry" />
        </mxCell>
        <mxCell id="Gj214TnAQ4UsBlxBKr0H-17" value="&lt;div&gt;consumeGrass()&lt;/div&gt;" style="text;html=1;align=center;verticalAlign=middle;resizable=0;points=[];autosize=1;strokeColor=none;fillColor=none;" vertex="1" parent="Gj214TnAQ4UsBlxBKr0H-0">
          <mxGeometry y="484" width="160" height="30" as="geometry" />
        </mxCell>
        <mxCell id="Gj214TnAQ4UsBlxBKr0H-18" value="&lt;div&gt;move()&lt;/div&gt;" style="text;html=1;align=center;verticalAlign=middle;resizable=0;points=[];autosize=1;strokeColor=none;fillColor=none;" vertex="1" parent="Gj214TnAQ4UsBlxBKr0H-0">
          <mxGeometry y="514" width="160" height="30" as="geometry" />
        </mxCell>
        <mxCell id="Gj214TnAQ4UsBlxBKr0H-19" value="Agro-pastoralist" style="swimlane;fontStyle=0;align=center;verticalAlign=top;childLayout=stackLayout;horizontal=1;startSize=26;horizontalStack=0;resizeParent=1;resizeLast=0;collapsible=1;marginBottom=0;rounded=0;shadow=0;strokeWidth=1;" vertex="1" parent="WIyWlLk6GJQsqaUBKTNV-1">
          <mxGeometry x="80" y="660" width="160" height="66" as="geometry">
            <mxRectangle x="130" y="380" width="160" height="26" as="alternateBounds" />
          </mxGeometry>
        </mxCell>
        <mxCell id="Gj214TnAQ4UsBlxBKr0H-20" value="" style="line;html=1;strokeWidth=1;align=left;verticalAlign=middle;spacingTop=-1;spacingLeft=3;spacingRight=3;rotatable=0;labelPosition=right;points=[];portConstraint=eastwest;" vertex="1" parent="Gj214TnAQ4UsBlxBKr0H-19">
          <mxGeometry y="26" width="160" height="8" as="geometry" />
        </mxCell>
        <mxCell id="Gj214TnAQ4UsBlxBKr0H-21" value="cultivateCrops()" style="text;html=1;align=center;verticalAlign=middle;resizable=0;points=[];autosize=1;strokeColor=none;fillColor=none;" vertex="1" parent="Gj214TnAQ4UsBlxBKr0H-19">
          <mxGeometry y="34" width="160" height="30" as="geometry" />
        </mxCell>
        <mxCell id="Gj214TnAQ4UsBlxBKr0H-22" value="" style="endArrow=block;endSize=10;endFill=0;shadow=0;strokeWidth=1;rounded=0;edgeStyle=elbowEdgeStyle;elbow=vertical;" edge="1" parent="WIyWlLk6GJQsqaUBKTNV-1" source="Gj214TnAQ4UsBlxBKr0H-19" target="Gj214TnAQ4UsBlxBKr0H-0">
          <mxGeometry width="160" relative="1" as="geometry">
            <mxPoint x="120" y="343" as="sourcePoint" />
            <mxPoint x="120" y="343" as="targetPoint" />
          </mxGeometry>
        </mxCell>
        <mxCell id="Gj214TnAQ4UsBlxBKr0H-23" value="" style="endArrow=none;html=1;rounded=0;edgeStyle=orthogonalEdgeStyle;" edge="1" parent="WIyWlLk6GJQsqaUBKTNV-1" source="Gj214TnAQ4UsBlxBKr0H-25" target="Gj214TnAQ4UsBlxBKr0H-39">
          <mxGeometry relative="1" as="geometry" />
        </mxCell>
        <mxCell id="Gj214TnAQ4UsBlxBKr0H-24" value="has &amp;gt;" style="edgeLabel;html=1;align=center;verticalAlign=middle;resizable=0;points=[];" connectable="0" vertex="1" parent="Gj214TnAQ4UsBlxBKr0H-23">
          <mxGeometry x="-0.0299" y="-2" relative="1" as="geometry">
            <mxPoint as="offset" />
          </mxGeometry>
        </mxCell>
        <mxCell id="Gj214TnAQ4UsBlxBKr0H-25" value="Pastor" style="swimlane;fontStyle=0;align=center;verticalAlign=top;childLayout=stackLayout;horizontal=1;startSize=26;horizontalStack=0;resizeParent=1;resizeLast=0;collapsible=1;marginBottom=0;rounded=0;shadow=0;strokeWidth=1;" vertex="1" parent="WIyWlLk6GJQsqaUBKTNV-1">
          <mxGeometry x="420" y="660" width="160" height="124" as="geometry">
            <mxRectangle x="340" y="380" width="170" height="26" as="alternateBounds" />
          </mxGeometry>
        </mxCell>
        <mxCell id="Gj214TnAQ4UsBlxBKr0H-26" value="" style="line;html=1;strokeWidth=1;align=left;verticalAlign=middle;spacingTop=-1;spacingLeft=3;spacingRight=3;rotatable=0;labelPosition=right;points=[];portConstraint=eastwest;" vertex="1" parent="Gj214TnAQ4UsBlxBKr0H-25">
          <mxGeometry y="26" width="160" height="8" as="geometry" />
        </mxCell>
        <mxCell id="Gj214TnAQ4UsBlxBKr0H-27" value="&lt;div&gt;setNewStatus()&lt;/div&gt;" style="text;html=1;align=center;verticalAlign=middle;resizable=0;points=[];autosize=1;strokeColor=none;fillColor=none;" vertex="1" parent="Gj214TnAQ4UsBlxBKr0H-25">
          <mxGeometry y="34" width="160" height="30" as="geometry" />
        </mxCell>
        <mxCell id="Gj214TnAQ4UsBlxBKr0H-28" value="&lt;div&gt;becomeTranshumant()&lt;/div&gt;" style="text;html=1;align=center;verticalAlign=middle;resizable=0;points=[];autosize=1;strokeColor=none;fillColor=none;" vertex="1" parent="Gj214TnAQ4UsBlxBKr0H-25">
          <mxGeometry y="64" width="160" height="30" as="geometry" />
        </mxCell>
        <mxCell id="Gj214TnAQ4UsBlxBKr0H-29" value="&lt;div&gt;becomeSettled()&lt;/div&gt;" style="text;html=1;align=center;verticalAlign=middle;resizable=0;points=[];autosize=1;strokeColor=none;fillColor=none;" vertex="1" parent="Gj214TnAQ4UsBlxBKr0H-25">
          <mxGeometry y="94" width="160" height="30" as="geometry" />
        </mxCell>
        <mxCell id="Gj214TnAQ4UsBlxBKr0H-30" value="" style="endArrow=block;endSize=10;endFill=0;shadow=0;strokeWidth=1;rounded=0;edgeStyle=elbowEdgeStyle;elbow=vertical;" edge="1" parent="WIyWlLk6GJQsqaUBKTNV-1" source="Gj214TnAQ4UsBlxBKr0H-25" target="Gj214TnAQ4UsBlxBKr0H-0">
          <mxGeometry width="160" relative="1" as="geometry">
            <mxPoint x="130" y="513" as="sourcePoint" />
            <mxPoint x="230" y="411" as="targetPoint" />
          </mxGeometry>
        </mxCell>
        <mxCell id="Gj214TnAQ4UsBlxBKr0H-31" value="Village" style="swimlane;fontStyle=0;align=center;verticalAlign=top;childLayout=stackLayout;horizontal=1;startSize=26;horizontalStack=0;resizeParent=1;resizeLast=0;collapsible=1;marginBottom=0;rounded=0;shadow=0;strokeWidth=1;" vertex="1" parent="WIyWlLk6GJQsqaUBKTNV-1">
          <mxGeometry x="570" y="160" width="160" height="92" as="geometry">
            <mxRectangle x="550" y="140" width="160" height="26" as="alternateBounds" />
          </mxGeometry>
        </mxCell>
        <mxCell id="Gj214TnAQ4UsBlxBKr0H-32" value="numberOfAgents" style="text;align=left;verticalAlign=top;spacingLeft=4;spacingRight=4;overflow=hidden;rotatable=0;points=[[0,0.5],[1,0.5]];portConstraint=eastwest;" vertex="1" parent="Gj214TnAQ4UsBlxBKr0H-31">
          <mxGeometry y="26" width="160" height="26" as="geometry" />
        </mxCell>
        <mxCell id="Gj214TnAQ4UsBlxBKr0H-33" value="" style="line;html=1;strokeWidth=1;align=left;verticalAlign=middle;spacingTop=-1;spacingLeft=3;spacingRight=3;rotatable=0;labelPosition=right;points=[];portConstraint=eastwest;" vertex="1" parent="Gj214TnAQ4UsBlxBKr0H-31">
          <mxGeometry y="52" width="160" height="10" as="geometry" />
        </mxCell>
        <mxCell id="Gj214TnAQ4UsBlxBKr0H-34" value="&lt;div&gt;consumeWood()&lt;/div&gt;" style="text;html=1;align=center;verticalAlign=middle;resizable=0;points=[];autosize=1;strokeColor=none;fillColor=none;" vertex="1" parent="Gj214TnAQ4UsBlxBKr0H-31">
          <mxGeometry y="62" width="160" height="30" as="geometry" />
        </mxCell>
        <mxCell id="Gj214TnAQ4UsBlxBKr0H-35" value="" style="endArrow=none;html=1;rounded=0;edgeStyle=orthogonalEdgeStyle;" edge="1" parent="WIyWlLk6GJQsqaUBKTNV-1" source="Gj214TnAQ4UsBlxBKr0H-0" target="Gj214TnAQ4UsBlxBKr0H-31">
          <mxGeometry x="0.5" y="41" relative="1" as="geometry">
            <mxPoint x="300" y="332" as="sourcePoint" />
            <mxPoint x="500" y="220" as="targetPoint" />
            <mxPoint x="-40" y="32" as="offset" />
            <Array as="points">
              <mxPoint x="520" y="240" />
              <mxPoint x="520" y="240" />
            </Array>
          </mxGeometry>
        </mxCell>
        <mxCell id="Gj214TnAQ4UsBlxBKr0H-36" value="0..n" style="resizable=0;align=left;verticalAlign=bottom;labelBackgroundColor=none;fontSize=12;" connectable="0" vertex="1" parent="Gj214TnAQ4UsBlxBKr0H-35">
          <mxGeometry x="-1" relative="1" as="geometry">
            <mxPoint y="4" as="offset" />
          </mxGeometry>
        </mxCell>
        <mxCell id="Gj214TnAQ4UsBlxBKr0H-37" value="1" style="resizable=0;align=right;verticalAlign=bottom;labelBackgroundColor=none;fontSize=12;" connectable="0" vertex="1" parent="Gj214TnAQ4UsBlxBKr0H-35">
          <mxGeometry x="1" relative="1" as="geometry">
            <mxPoint x="170" y="-50" as="offset" />
          </mxGeometry>
        </mxCell>
        <mxCell id="Gj214TnAQ4UsBlxBKr0H-38" value="lives at &amp;gt;" style="text;html=1;resizable=0;points=[];;align=center;verticalAlign=middle;labelBackgroundColor=none;rounded=0;shadow=0;strokeWidth=1;fontSize=12;" connectable="0" vertex="1" parent="Gj214TnAQ4UsBlxBKr0H-35">
          <mxGeometry x="0.5" y="49" relative="1" as="geometry">
            <mxPoint x="-38" y="40" as="offset" />
          </mxGeometry>
        </mxCell>
        <mxCell id="Gj214TnAQ4UsBlxBKr0H-39" value="Status" style="swimlane;fontStyle=0;align=center;verticalAlign=top;childLayout=stackLayout;horizontal=1;startSize=26;horizontalStack=0;resizeParent=1;resizeLast=0;collapsible=1;marginBottom=0;rounded=0;shadow=0;strokeWidth=1;" vertex="1" parent="WIyWlLk6GJQsqaUBKTNV-1">
          <mxGeometry x="700" y="795" width="160" height="70" as="geometry">
            <mxRectangle x="340" y="380" width="170" height="26" as="alternateBounds" />
          </mxGeometry>
        </mxCell>
        <mxCell id="Gj214TnAQ4UsBlxBKr0H-40" value="" style="line;html=1;strokeWidth=1;align=left;verticalAlign=middle;spacingTop=-1;spacingLeft=3;spacingRight=3;rotatable=0;labelPosition=right;points=[];portConstraint=eastwest;" vertex="1" parent="Gj214TnAQ4UsBlxBKr0H-39">
          <mxGeometry y="26" width="160" height="8" as="geometry" />
        </mxCell>
        <mxCell id="Gj214TnAQ4UsBlxBKr0H-41" value="Cell" style="swimlane;fontStyle=0;align=center;verticalAlign=top;childLayout=stackLayout;horizontal=1;startSize=26;horizontalStack=0;resizeParent=1;resizeLast=0;collapsible=1;marginBottom=0;rounded=0;shadow=0;strokeWidth=1;" vertex="1" parent="WIyWlLk6GJQsqaUBKTNV-1">
          <mxGeometry x="1210" y="300" width="160" height="274" as="geometry">
            <mxRectangle x="550" y="140" width="160" height="26" as="alternateBounds" />
          </mxGeometry>
        </mxCell>
        <mxCell id="Gj214TnAQ4UsBlxBKr0H-42" value="amountOfLeaves" style="text;align=left;verticalAlign=top;spacingLeft=4;spacingRight=4;overflow=hidden;rotatable=0;points=[[0,0.5],[1,0.5]];portConstraint=eastwest;" vertex="1" parent="Gj214TnAQ4UsBlxBKr0H-41">
          <mxGeometry y="26" width="160" height="26" as="geometry" />
        </mxCell>
        <mxCell id="Gj214TnAQ4UsBlxBKr0H-43" value="amountOfFruits" style="text;align=left;verticalAlign=top;spacingLeft=4;spacingRight=4;overflow=hidden;rotatable=0;points=[[0,0.5],[1,0.5]];portConstraint=eastwest;" vertex="1" parent="Gj214TnAQ4UsBlxBKr0H-41">
          <mxGeometry y="52" width="160" height="26" as="geometry" />
        </mxCell>
        <mxCell id="Gj214TnAQ4UsBlxBKr0H-44" value="amountOfGrass" style="text;align=left;verticalAlign=top;spacingLeft=4;spacingRight=4;overflow=hidden;rotatable=0;points=[[0,0.5],[1,0.5]];portConstraint=eastwest;" vertex="1" parent="Gj214TnAQ4UsBlxBKr0H-41">
          <mxGeometry y="78" width="160" height="26" as="geometry" />
        </mxCell>
        <mxCell id="Gj214TnAQ4UsBlxBKr0H-45" value="amountOfWood" style="text;align=left;verticalAlign=top;spacingLeft=4;spacingRight=4;overflow=hidden;rotatable=0;points=[[0,0.5],[1,0.5]];portConstraint=eastwest;" vertex="1" parent="Gj214TnAQ4UsBlxBKr0H-41">
          <mxGeometry y="104" width="160" height="26" as="geometry" />
        </mxCell>
        <mxCell id="Gj214TnAQ4UsBlxBKr0H-46" value="hasVillage" style="text;align=left;verticalAlign=top;spacingLeft=4;spacingRight=4;overflow=hidden;rotatable=0;points=[[0,0.5],[1,0.5]];portConstraint=eastwest;" vertex="1" parent="Gj214TnAQ4UsBlxBKr0H-41">
          <mxGeometry y="130" width="160" height="26" as="geometry" />
        </mxCell>
        <mxCell id="Gj214TnAQ4UsBlxBKr0H-47" value="" style="line;html=1;strokeWidth=1;align=left;verticalAlign=middle;spacingTop=-1;spacingLeft=3;spacingRight=3;rotatable=0;labelPosition=right;points=[];portConstraint=eastwest;" vertex="1" parent="Gj214TnAQ4UsBlxBKr0H-41">
          <mxGeometry y="156" width="160" height="8" as="geometry" />
        </mxCell>
        <mxCell id="Gj214TnAQ4UsBlxBKr0H-48" value="growLeaves()" style="text;align=left;verticalAlign=top;spacingLeft=4;spacingRight=4;overflow=hidden;rotatable=0;points=[[0,0.5],[1,0.5]];portConstraint=eastwest;" vertex="1" parent="Gj214TnAQ4UsBlxBKr0H-41">
          <mxGeometry y="164" width="160" height="26" as="geometry" />
        </mxCell>
        <mxCell id="Gj214TnAQ4UsBlxBKr0H-49" value="growFruits()" style="text;align=left;verticalAlign=top;spacingLeft=4;spacingRight=4;overflow=hidden;rotatable=0;points=[[0,0.5],[1,0.5]];portConstraint=eastwest;" vertex="1" parent="Gj214TnAQ4UsBlxBKr0H-41">
          <mxGeometry y="190" width="160" height="26" as="geometry" />
        </mxCell>
        <mxCell id="Gj214TnAQ4UsBlxBKr0H-50" value="growGrass()" style="text;align=left;verticalAlign=top;spacingLeft=4;spacingRight=4;overflow=hidden;rotatable=0;points=[[0,0.5],[1,0.5]];portConstraint=eastwest;" vertex="1" parent="Gj214TnAQ4UsBlxBKr0H-41">
          <mxGeometry y="216" width="160" height="26" as="geometry" />
        </mxCell>
        <mxCell id="Gj214TnAQ4UsBlxBKr0H-51" value="growWood()" style="text;align=left;verticalAlign=top;spacingLeft=4;spacingRight=4;overflow=hidden;rotatable=0;points=[[0,0.5],[1,0.5]];portConstraint=eastwest;" vertex="1" parent="Gj214TnAQ4UsBlxBKr0H-41">
          <mxGeometry y="242" width="160" height="26" as="geometry" />
        </mxCell>
        <mxCell id="Gj214TnAQ4UsBlxBKr0H-52" value="Cattle" style="swimlane;fontStyle=0;align=center;verticalAlign=top;childLayout=stackLayout;horizontal=1;startSize=26;horizontalStack=0;resizeParent=1;resizeLast=0;collapsible=1;marginBottom=0;rounded=0;shadow=0;strokeWidth=1;" vertex="1" parent="WIyWlLk6GJQsqaUBKTNV-1">
          <mxGeometry x="80" y="910" width="160" height="154" as="geometry">
            <mxRectangle x="340" y="380" width="170" height="26" as="alternateBounds" />
          </mxGeometry>
        </mxCell>
        <mxCell id="Gj214TnAQ4UsBlxBKr0H-53" value="" style="line;html=1;strokeWidth=1;align=left;verticalAlign=middle;spacingTop=-1;spacingLeft=3;spacingRight=3;rotatable=0;labelPosition=right;points=[];portConstraint=eastwest;" vertex="1" parent="Gj214TnAQ4UsBlxBKr0H-52">
          <mxGeometry y="26" width="160" height="8" as="geometry" />
        </mxCell>
        <mxCell id="Gj214TnAQ4UsBlxBKr0H-54" value="&lt;div&gt;consumeLeaves()&lt;/div&gt;" style="text;html=1;align=center;verticalAlign=middle;resizable=0;points=[];autosize=1;strokeColor=none;fillColor=none;" vertex="1" parent="Gj214TnAQ4UsBlxBKr0H-52">
          <mxGeometry y="34" width="160" height="30" as="geometry" />
        </mxCell>
        <mxCell id="Gj214TnAQ4UsBlxBKr0H-55" value="&lt;div&gt;consumeGrass()&lt;/div&gt;" style="text;html=1;align=center;verticalAlign=middle;resizable=0;points=[];autosize=1;strokeColor=none;fillColor=none;" vertex="1" parent="Gj214TnAQ4UsBlxBKr0H-52">
          <mxGeometry y="64" width="160" height="30" as="geometry" />
        </mxCell>
        <mxCell id="Gj214TnAQ4UsBlxBKr0H-56" value="&lt;div&gt;consumeFruits()&lt;/div&gt;" style="text;html=1;align=center;verticalAlign=middle;resizable=0;points=[];autosize=1;strokeColor=none;fillColor=none;" vertex="1" parent="Gj214TnAQ4UsBlxBKr0H-52">
          <mxGeometry y="94" width="160" height="30" as="geometry" />
        </mxCell>
        <mxCell id="Gj214TnAQ4UsBlxBKr0H-57" value="&lt;div&gt;move()&lt;/div&gt;" style="text;html=1;align=center;verticalAlign=middle;resizable=0;points=[];autosize=1;strokeColor=none;fillColor=none;" vertex="1" parent="Gj214TnAQ4UsBlxBKr0H-52">
          <mxGeometry y="124" width="160" height="30" as="geometry" />
        </mxCell>
        <mxCell id="Gj214TnAQ4UsBlxBKr0H-58" style="endArrow=none;html=1;rounded=0;edgeStyle=orthogonalEdgeStyle;" edge="1" parent="WIyWlLk6GJQsqaUBKTNV-1" target="Gj214TnAQ4UsBlxBKr0H-41">
          <mxGeometry relative="1" as="geometry">
            <mxPoint x="730" y="199.04761904761904" as="sourcePoint" />
            <Array as="points">
              <mxPoint x="730" y="193" />
            </Array>
          </mxGeometry>
        </mxCell>
        <mxCell id="Gj214TnAQ4UsBlxBKr0H-59" value="is located &amp;gt;" style="edgeLabel;html=1;align=center;verticalAlign=middle;resizable=0;points=[];" connectable="0" vertex="1" parent="Gj214TnAQ4UsBlxBKr0H-58">
          <mxGeometry x="0.0143" y="3" relative="1" as="geometry">
            <mxPoint as="offset" />
          </mxGeometry>
        </mxCell>
        <mxCell id="Gj214TnAQ4UsBlxBKr0H-60" value="1" style="resizable=0;align=right;verticalAlign=bottom;labelBackgroundColor=none;fontSize=12;" connectable="0" vertex="1" parent="WIyWlLk6GJQsqaUBKTNV-1">
          <mxGeometry x="560.0000000000001" y="239.99999999999994" as="geometry" />
        </mxCell>
        <mxCell id="Gj214TnAQ4UsBlxBKr0H-61" value="" style="endArrow=none;html=1;rounded=0;edgeStyle=orthogonalEdgeStyle;" edge="1" parent="WIyWlLk6GJQsqaUBKTNV-1" source="Gj214TnAQ4UsBlxBKr0H-25" target="Gj214TnAQ4UsBlxBKr0H-52">
          <mxGeometry x="0.5" y="41" relative="1" as="geometry">
            <mxPoint x="370" y="230" as="sourcePoint" />
            <mxPoint x="580" y="230" as="targetPoint" />
            <mxPoint x="-40" y="32" as="offset" />
            <Array as="points">
              <mxPoint x="500" y="830" />
              <mxPoint x="160" y="830" />
            </Array>
          </mxGeometry>
        </mxCell>
        <mxCell id="Gj214TnAQ4UsBlxBKr0H-62" value="" style="resizable=0;align=left;verticalAlign=bottom;labelBackgroundColor=none;fontSize=12;" connectable="0" vertex="1" parent="Gj214TnAQ4UsBlxBKr0H-61">
          <mxGeometry x="-1" relative="1" as="geometry">
            <mxPoint y="4" as="offset" />
          </mxGeometry>
        </mxCell>
        <mxCell id="Gj214TnAQ4UsBlxBKr0H-63" value="" style="endArrow=none;html=1;rounded=0;edgeStyle=orthogonalEdgeStyle;" edge="1" parent="WIyWlLk6GJQsqaUBKTNV-1" source="Gj214TnAQ4UsBlxBKr0H-19" target="Gj214TnAQ4UsBlxBKr0H-52">
          <mxGeometry x="0.5" y="41" relative="1" as="geometry">
            <mxPoint x="279.33000000000004" y="450" as="sourcePoint" />
            <mxPoint x="279.33000000000004" y="640" as="targetPoint" />
            <mxPoint x="-40" y="32" as="offset" />
          </mxGeometry>
        </mxCell>
        <mxCell id="Gj214TnAQ4UsBlxBKr0H-64" value="0..n" style="resizable=0;align=left;verticalAlign=bottom;labelBackgroundColor=none;fontSize=12;" connectable="0" vertex="1" parent="Gj214TnAQ4UsBlxBKr0H-63">
          <mxGeometry x="-1" relative="1" as="geometry">
            <mxPoint y="174" as="offset" />
          </mxGeometry>
        </mxCell>
        <mxCell id="Gj214TnAQ4UsBlxBKr0H-65" value="1" style="resizable=0;align=right;verticalAlign=bottom;labelBackgroundColor=none;fontSize=12;" connectable="0" vertex="1" parent="Gj214TnAQ4UsBlxBKr0H-63">
          <mxGeometry x="1" relative="1" as="geometry">
            <mxPoint x="254" y="-150" as="offset" />
          </mxGeometry>
        </mxCell>
        <mxCell id="Gj214TnAQ4UsBlxBKr0H-66" value="herd &amp;gt;" style="edgeLabel;html=1;align=center;verticalAlign=middle;resizable=0;points=[];" connectable="0" vertex="1" parent="Gj214TnAQ4UsBlxBKr0H-63">
          <mxGeometry x="0.0768" y="-1" relative="1" as="geometry">
            <mxPoint as="offset" />
          </mxGeometry>
        </mxCell>
        <mxCell id="Gj214TnAQ4UsBlxBKr0H-67" value="1" style="resizable=0;align=left;verticalAlign=bottom;labelBackgroundColor=none;fontSize=12;direction=north;" connectable="0" vertex="1" parent="WIyWlLk6GJQsqaUBKTNV-1">
          <mxGeometry x="170" y="740" as="geometry">
            <mxPoint x="-4" y="1" as="offset" />
          </mxGeometry>
        </mxCell>
        <mxCell id="Gj214TnAQ4UsBlxBKr0H-68" value="1" style="resizable=0;align=right;verticalAlign=bottom;labelBackgroundColor=none;fontSize=12;" connectable="0" vertex="1" parent="WIyWlLk6GJQsqaUBKTNV-1">
          <mxGeometry x="929.9961904761903" y="560.9961904761905" as="geometry">
            <mxPoint x="275" y="-118" as="offset" />
          </mxGeometry>
        </mxCell>
        <mxCell id="Gj214TnAQ4UsBlxBKr0H-69" value="CaangolCell" style="swimlane;fontStyle=0;align=center;verticalAlign=top;childLayout=stackLayout;horizontal=1;startSize=26;horizontalStack=0;resizeParent=1;resizeLast=0;collapsible=1;marginBottom=0;rounded=0;shadow=0;strokeWidth=1;" vertex="1" parent="WIyWlLk6GJQsqaUBKTNV-1">
          <mxGeometry x="930" y="624" width="170" height="280" as="geometry">
            <mxRectangle x="340" y="380" width="170" height="26" as="alternateBounds" />
          </mxGeometry>
        </mxCell>
        <mxCell id="Gj214TnAQ4UsBlxBKr0H-70" value="maxAmountOfLeaves" style="text;html=1;align=center;verticalAlign=middle;resizable=0;points=[];autosize=1;strokeColor=none;fillColor=none;" vertex="1" parent="Gj214TnAQ4UsBlxBKr0H-69">
          <mxGeometry y="26" width="170" height="30" as="geometry" />
        </mxCell>
        <mxCell id="Gj214TnAQ4UsBlxBKr0H-71" value="maxAmountOfFruits" style="text;html=1;align=center;verticalAlign=middle;resizable=0;points=[];autosize=1;strokeColor=none;fillColor=none;" vertex="1" parent="Gj214TnAQ4UsBlxBKr0H-69">
          <mxGeometry y="56" width="170" height="30" as="geometry" />
        </mxCell>
        <mxCell id="Gj214TnAQ4UsBlxBKr0H-72" value="maxAmountOfGrass" style="text;html=1;align=center;verticalAlign=middle;resizable=0;points=[];autosize=1;strokeColor=none;fillColor=none;" vertex="1" parent="Gj214TnAQ4UsBlxBKr0H-69">
          <mxGeometry y="86" width="170" height="30" as="geometry" />
        </mxCell>
        <mxCell id="Gj214TnAQ4UsBlxBKr0H-73" value="maxAmountOfWood" style="text;html=1;align=center;verticalAlign=middle;resizable=0;points=[];autosize=1;strokeColor=none;fillColor=none;" vertex="1" parent="Gj214TnAQ4UsBlxBKr0H-69">
          <mxGeometry y="116" width="170" height="30" as="geometry" />
        </mxCell>
        <mxCell id="Gj214TnAQ4UsBlxBKr0H-74" value="leaveGrowthCoef" style="text;html=1;align=center;verticalAlign=middle;resizable=0;points=[];autosize=1;strokeColor=none;fillColor=none;" vertex="1" parent="Gj214TnAQ4UsBlxBKr0H-69">
          <mxGeometry y="146" width="170" height="30" as="geometry" />
        </mxCell>
        <mxCell id="Gj214TnAQ4UsBlxBKr0H-75" value="fruitGrowthCoef" style="text;html=1;align=center;verticalAlign=middle;resizable=0;points=[];autosize=1;strokeColor=none;fillColor=none;" vertex="1" parent="Gj214TnAQ4UsBlxBKr0H-69">
          <mxGeometry y="176" width="170" height="30" as="geometry" />
        </mxCell>
        <mxCell id="Gj214TnAQ4UsBlxBKr0H-76" value="grassGrowthCoef" style="text;html=1;align=center;verticalAlign=middle;resizable=0;points=[];autosize=1;strokeColor=none;fillColor=none;" vertex="1" parent="Gj214TnAQ4UsBlxBKr0H-69">
          <mxGeometry y="206" width="170" height="30" as="geometry" />
        </mxCell>
        <mxCell id="Gj214TnAQ4UsBlxBKr0H-77" value="woodGrowthCoef" style="text;html=1;align=center;verticalAlign=middle;resizable=0;points=[];autosize=1;strokeColor=none;fillColor=none;" vertex="1" parent="Gj214TnAQ4UsBlxBKr0H-69">
          <mxGeometry y="236" width="170" height="30" as="geometry" />
        </mxCell>
        <mxCell id="Gj214TnAQ4UsBlxBKr0H-78" value="" style="line;html=1;strokeWidth=1;align=left;verticalAlign=middle;spacingTop=-1;spacingLeft=3;spacingRight=3;rotatable=0;labelPosition=right;points=[];portConstraint=eastwest;" vertex="1" parent="Gj214TnAQ4UsBlxBKr0H-69">
          <mxGeometry y="266" width="170" height="8" as="geometry" />
        </mxCell>
        <mxCell id="Gj214TnAQ4UsBlxBKr0H-79" value="SangreCell" style="swimlane;fontStyle=0;align=center;verticalAlign=top;childLayout=stackLayout;horizontal=1;startSize=26;horizontalStack=0;resizeParent=1;resizeLast=0;collapsible=1;marginBottom=0;rounded=0;shadow=0;strokeWidth=1;" vertex="1" parent="WIyWlLk6GJQsqaUBKTNV-1">
          <mxGeometry x="1110" y="624" width="170" height="274" as="geometry">
            <mxRectangle x="340" y="380" width="170" height="26" as="alternateBounds" />
          </mxGeometry>
        </mxCell>
        <mxCell id="Gj214TnAQ4UsBlxBKr0H-80" value="maxAmountOfLeaves" style="text;html=1;align=center;verticalAlign=middle;resizable=0;points=[];autosize=1;strokeColor=none;fillColor=none;" vertex="1" parent="Gj214TnAQ4UsBlxBKr0H-79">
          <mxGeometry y="26" width="170" height="30" as="geometry" />
        </mxCell>
        <mxCell id="Gj214TnAQ4UsBlxBKr0H-81" value="maxAmountOfFruits" style="text;html=1;align=center;verticalAlign=middle;resizable=0;points=[];autosize=1;strokeColor=none;fillColor=none;" vertex="1" parent="Gj214TnAQ4UsBlxBKr0H-79">
          <mxGeometry y="56" width="170" height="30" as="geometry" />
        </mxCell>
        <mxCell id="Gj214TnAQ4UsBlxBKr0H-82" value="maxAmountOfGrass" style="text;html=1;align=center;verticalAlign=middle;resizable=0;points=[];autosize=1;strokeColor=none;fillColor=none;" vertex="1" parent="Gj214TnAQ4UsBlxBKr0H-79">
          <mxGeometry y="86" width="170" height="30" as="geometry" />
        </mxCell>
        <mxCell id="Gj214TnAQ4UsBlxBKr0H-83" value="maxAmountOfWood" style="text;html=1;align=center;verticalAlign=middle;resizable=0;points=[];autosize=1;strokeColor=none;fillColor=none;" vertex="1" parent="Gj214TnAQ4UsBlxBKr0H-79">
          <mxGeometry y="116" width="170" height="30" as="geometry" />
        </mxCell>
        <mxCell id="Gj214TnAQ4UsBlxBKr0H-84" value="leaveGrowthCoef" style="text;html=1;align=center;verticalAlign=middle;resizable=0;points=[];autosize=1;strokeColor=none;fillColor=none;" vertex="1" parent="Gj214TnAQ4UsBlxBKr0H-79">
          <mxGeometry y="146" width="170" height="30" as="geometry" />
        </mxCell>
        <mxCell id="Gj214TnAQ4UsBlxBKr0H-85" value="fruitGrowthCoef" style="text;html=1;align=center;verticalAlign=middle;resizable=0;points=[];autosize=1;strokeColor=none;fillColor=none;" vertex="1" parent="Gj214TnAQ4UsBlxBKr0H-79">
          <mxGeometry y="176" width="170" height="30" as="geometry" />
        </mxCell>
        <mxCell id="Gj214TnAQ4UsBlxBKr0H-86" value="grassGrowthCoef" style="text;html=1;align=center;verticalAlign=middle;resizable=0;points=[];autosize=1;strokeColor=none;fillColor=none;" vertex="1" parent="Gj214TnAQ4UsBlxBKr0H-79">
          <mxGeometry y="206" width="170" height="30" as="geometry" />
        </mxCell>
        <mxCell id="Gj214TnAQ4UsBlxBKr0H-87" value="woodGrowthCoef" style="text;html=1;align=center;verticalAlign=middle;resizable=0;points=[];autosize=1;strokeColor=none;fillColor=none;" vertex="1" parent="Gj214TnAQ4UsBlxBKr0H-79">
          <mxGeometry y="236" width="170" height="30" as="geometry" />
        </mxCell>
        <mxCell id="Gj214TnAQ4UsBlxBKr0H-88" value="" style="line;html=1;strokeWidth=1;align=left;verticalAlign=middle;spacingTop=-1;spacingLeft=3;spacingRight=3;rotatable=0;labelPosition=right;points=[];portConstraint=eastwest;" vertex="1" parent="Gj214TnAQ4UsBlxBKr0H-79">
          <mxGeometry y="266" width="170" height="8" as="geometry" />
        </mxCell>
        <mxCell id="Gj214TnAQ4UsBlxBKr0H-89" value="BaldiolCell" style="swimlane;fontStyle=0;align=center;verticalAlign=top;childLayout=stackLayout;horizontal=1;startSize=26;horizontalStack=0;resizeParent=1;resizeLast=0;collapsible=1;marginBottom=0;rounded=0;shadow=0;strokeWidth=1;" vertex="1" parent="WIyWlLk6GJQsqaUBKTNV-1">
          <mxGeometry x="1470" y="624" width="170" height="274" as="geometry">
            <mxRectangle x="340" y="380" width="170" height="26" as="alternateBounds" />
          </mxGeometry>
        </mxCell>
        <mxCell id="Gj214TnAQ4UsBlxBKr0H-90" value="maxAmountOfLeaves" style="text;html=1;align=center;verticalAlign=middle;resizable=0;points=[];autosize=1;strokeColor=none;fillColor=none;" vertex="1" parent="Gj214TnAQ4UsBlxBKr0H-89">
          <mxGeometry y="26" width="170" height="30" as="geometry" />
        </mxCell>
        <mxCell id="Gj214TnAQ4UsBlxBKr0H-91" value="maxAmountOfFruits" style="text;html=1;align=center;verticalAlign=middle;resizable=0;points=[];autosize=1;strokeColor=none;fillColor=none;" vertex="1" parent="Gj214TnAQ4UsBlxBKr0H-89">
          <mxGeometry y="56" width="170" height="30" as="geometry" />
        </mxCell>
        <mxCell id="Gj214TnAQ4UsBlxBKr0H-92" value="maxAmountOfGrass" style="text;html=1;align=center;verticalAlign=middle;resizable=0;points=[];autosize=1;strokeColor=none;fillColor=none;" vertex="1" parent="Gj214TnAQ4UsBlxBKr0H-89">
          <mxGeometry y="86" width="170" height="30" as="geometry" />
        </mxCell>
        <mxCell id="Gj214TnAQ4UsBlxBKr0H-93" value="maxAmountOfWood" style="text;html=1;align=center;verticalAlign=middle;resizable=0;points=[];autosize=1;strokeColor=none;fillColor=none;" vertex="1" parent="Gj214TnAQ4UsBlxBKr0H-89">
          <mxGeometry y="116" width="170" height="30" as="geometry" />
        </mxCell>
        <mxCell id="Gj214TnAQ4UsBlxBKr0H-94" value="leaveGrowthCoef" style="text;html=1;align=center;verticalAlign=middle;resizable=0;points=[];autosize=1;strokeColor=none;fillColor=none;" vertex="1" parent="Gj214TnAQ4UsBlxBKr0H-89">
          <mxGeometry y="146" width="170" height="30" as="geometry" />
        </mxCell>
        <mxCell id="Gj214TnAQ4UsBlxBKr0H-95" value="fruitGrowthCoef" style="text;html=1;align=center;verticalAlign=middle;resizable=0;points=[];autosize=1;strokeColor=none;fillColor=none;" vertex="1" parent="Gj214TnAQ4UsBlxBKr0H-89">
          <mxGeometry y="176" width="170" height="30" as="geometry" />
        </mxCell>
        <mxCell id="Gj214TnAQ4UsBlxBKr0H-96" value="grassGrowthCoef" style="text;html=1;align=center;verticalAlign=middle;resizable=0;points=[];autosize=1;strokeColor=none;fillColor=none;" vertex="1" parent="Gj214TnAQ4UsBlxBKr0H-89">
          <mxGeometry y="206" width="170" height="30" as="geometry" />
        </mxCell>
        <mxCell id="Gj214TnAQ4UsBlxBKr0H-97" value="woodGrowthCoef" style="text;html=1;align=center;verticalAlign=middle;resizable=0;points=[];autosize=1;strokeColor=none;fillColor=none;" vertex="1" parent="Gj214TnAQ4UsBlxBKr0H-89">
          <mxGeometry y="236" width="170" height="30" as="geometry" />
        </mxCell>
        <mxCell id="Gj214TnAQ4UsBlxBKr0H-98" value="" style="line;html=1;strokeWidth=1;align=left;verticalAlign=middle;spacingTop=-1;spacingLeft=3;spacingRight=3;rotatable=0;labelPosition=right;points=[];portConstraint=eastwest;" vertex="1" parent="Gj214TnAQ4UsBlxBKr0H-89">
          <mxGeometry y="266" width="170" height="8" as="geometry" />
        </mxCell>
        <mxCell id="Gj214TnAQ4UsBlxBKr0H-99" value="SeenoCell" style="swimlane;fontStyle=0;align=center;verticalAlign=top;childLayout=stackLayout;horizontal=1;startSize=26;horizontalStack=0;resizeParent=1;resizeLast=0;collapsible=1;marginBottom=0;rounded=0;shadow=0;strokeWidth=1;" vertex="1" parent="WIyWlLk6GJQsqaUBKTNV-1">
          <mxGeometry x="1290" y="624" width="170" height="274" as="geometry">
            <mxRectangle x="340" y="380" width="170" height="26" as="alternateBounds" />
          </mxGeometry>
        </mxCell>
        <mxCell id="Gj214TnAQ4UsBlxBKr0H-100" value="maxAmountOfLeaves" style="text;html=1;align=center;verticalAlign=middle;resizable=0;points=[];autosize=1;strokeColor=none;fillColor=none;" vertex="1" parent="Gj214TnAQ4UsBlxBKr0H-99">
          <mxGeometry y="26" width="170" height="30" as="geometry" />
        </mxCell>
        <mxCell id="Gj214TnAQ4UsBlxBKr0H-101" value="maxAmountOfFruits" style="text;html=1;align=center;verticalAlign=middle;resizable=0;points=[];autosize=1;strokeColor=none;fillColor=none;" vertex="1" parent="Gj214TnAQ4UsBlxBKr0H-99">
          <mxGeometry y="56" width="170" height="30" as="geometry" />
        </mxCell>
        <mxCell id="Gj214TnAQ4UsBlxBKr0H-102" value="maxAmountOfGrass" style="text;html=1;align=center;verticalAlign=middle;resizable=0;points=[];autosize=1;strokeColor=none;fillColor=none;" vertex="1" parent="Gj214TnAQ4UsBlxBKr0H-99">
          <mxGeometry y="86" width="170" height="30" as="geometry" />
        </mxCell>
        <mxCell id="Gj214TnAQ4UsBlxBKr0H-103" value="maxAmountOfWood" style="text;html=1;align=center;verticalAlign=middle;resizable=0;points=[];autosize=1;strokeColor=none;fillColor=none;" vertex="1" parent="Gj214TnAQ4UsBlxBKr0H-99">
          <mxGeometry y="116" width="170" height="30" as="geometry" />
        </mxCell>
        <mxCell id="Gj214TnAQ4UsBlxBKr0H-104" value="leaveGrowthCoef" style="text;html=1;align=center;verticalAlign=middle;resizable=0;points=[];autosize=1;strokeColor=none;fillColor=none;" vertex="1" parent="Gj214TnAQ4UsBlxBKr0H-99">
          <mxGeometry y="146" width="170" height="30" as="geometry" />
        </mxCell>
        <mxCell id="Gj214TnAQ4UsBlxBKr0H-105" value="fruitGrowthCoef" style="text;html=1;align=center;verticalAlign=middle;resizable=0;points=[];autosize=1;strokeColor=none;fillColor=none;" vertex="1" parent="Gj214TnAQ4UsBlxBKr0H-99">
          <mxGeometry y="176" width="170" height="30" as="geometry" />
        </mxCell>
        <mxCell id="Gj214TnAQ4UsBlxBKr0H-106" value="grassGrowthCoef" style="text;html=1;align=center;verticalAlign=middle;resizable=0;points=[];autosize=1;strokeColor=none;fillColor=none;" vertex="1" parent="Gj214TnAQ4UsBlxBKr0H-99">
          <mxGeometry y="206" width="170" height="30" as="geometry" />
        </mxCell>
        <mxCell id="Gj214TnAQ4UsBlxBKr0H-107" value="woodGrowthCoef" style="text;html=1;align=center;verticalAlign=middle;resizable=0;points=[];autosize=1;strokeColor=none;fillColor=none;" vertex="1" parent="Gj214TnAQ4UsBlxBKr0H-99">
          <mxGeometry y="236" width="170" height="30" as="geometry" />
        </mxCell>
        <mxCell id="Gj214TnAQ4UsBlxBKr0H-108" value="" style="line;html=1;strokeWidth=1;align=left;verticalAlign=middle;spacingTop=-1;spacingLeft=3;spacingRight=3;rotatable=0;labelPosition=right;points=[];portConstraint=eastwest;" vertex="1" parent="Gj214TnAQ4UsBlxBKr0H-99">
          <mxGeometry y="266" width="170" height="8" as="geometry" />
        </mxCell>
        <mxCell id="Gj214TnAQ4UsBlxBKr0H-109" value="" style="endArrow=block;endSize=10;endFill=0;shadow=0;strokeWidth=1;rounded=0;edgeStyle=elbowEdgeStyle;elbow=vertical;" edge="1" parent="WIyWlLk6GJQsqaUBKTNV-1" source="Gj214TnAQ4UsBlxBKr0H-89" target="Gj214TnAQ4UsBlxBKr0H-41">
          <mxGeometry width="160" relative="1" as="geometry">
            <mxPoint x="1570" y="839" as="sourcePoint" />
            <mxPoint x="1360" y="793" as="targetPoint" />
          </mxGeometry>
        </mxCell>
        <mxCell id="Gj214TnAQ4UsBlxBKr0H-110" value="" style="endArrow=block;endSize=10;endFill=0;shadow=0;strokeWidth=1;rounded=0;edgeStyle=elbowEdgeStyle;elbow=vertical;" edge="1" parent="WIyWlLk6GJQsqaUBKTNV-1" source="Gj214TnAQ4UsBlxBKr0H-99" target="Gj214TnAQ4UsBlxBKr0H-41">
          <mxGeometry width="160" relative="1" as="geometry">
            <mxPoint x="1580" y="849" as="sourcePoint" />
            <mxPoint x="1300" y="604" as="targetPoint" />
          </mxGeometry>
        </mxCell>
        <mxCell id="Gj214TnAQ4UsBlxBKr0H-111" value="" style="endArrow=block;endSize=10;endFill=0;shadow=0;strokeWidth=1;rounded=0;edgeStyle=elbowEdgeStyle;elbow=vertical;" edge="1" parent="WIyWlLk6GJQsqaUBKTNV-1" source="Gj214TnAQ4UsBlxBKr0H-79" target="Gj214TnAQ4UsBlxBKr0H-41">
          <mxGeometry width="160" relative="1" as="geometry">
            <mxPoint x="1590" y="859" as="sourcePoint" />
            <mxPoint x="1190" y="644" as="targetPoint" />
          </mxGeometry>
        </mxCell>
        <mxCell id="Gj214TnAQ4UsBlxBKr0H-112" value="" style="endArrow=block;endSize=10;endFill=0;shadow=0;strokeWidth=1;rounded=0;edgeStyle=elbowEdgeStyle;elbow=vertical;" edge="1" parent="WIyWlLk6GJQsqaUBKTNV-1" source="Gj214TnAQ4UsBlxBKr0H-69" target="Gj214TnAQ4UsBlxBKr0H-41">
          <mxGeometry width="160" relative="1" as="geometry">
            <mxPoint x="1600" y="869" as="sourcePoint" />
            <mxPoint x="1320" y="624" as="targetPoint" />
          </mxGeometry>
        </mxCell>
        <mxCell id="Gj214TnAQ4UsBlxBKr0H-113" style="endArrow=none;html=1;rounded=0;edgeStyle=orthogonalEdgeStyle;" edge="1" parent="WIyWlLk6GJQsqaUBKTNV-1" source="Gj214TnAQ4UsBlxBKr0H-0" target="Gj214TnAQ4UsBlxBKr0H-41">
          <mxGeometry relative="1" as="geometry">
            <mxPoint x="740" y="209.04761904761904" as="sourcePoint" />
            <mxPoint x="1210" y="203" as="targetPoint" />
            <Array as="points">
              <mxPoint x="990" y="120" />
              <mxPoint x="990" y="120" />
            </Array>
          </mxGeometry>
        </mxCell>
        <mxCell id="Gj214TnAQ4UsBlxBKr0H-114" value="is located &amp;gt;" style="edgeLabel;html=1;align=center;verticalAlign=middle;resizable=0;points=[];" connectable="0" vertex="1" parent="Gj214TnAQ4UsBlxBKr0H-113">
          <mxGeometry x="0.0143" y="3" relative="1" as="geometry">
            <mxPoint as="offset" />
          </mxGeometry>
        </mxCell>
        <mxCell id="Gj214TnAQ4UsBlxBKr0H-115" value="Transhumant" style="swimlane;fontStyle=0;align=center;verticalAlign=top;childLayout=stackLayout;horizontal=1;startSize=26;horizontalStack=0;resizeParent=1;resizeLast=0;collapsible=1;marginBottom=0;rounded=0;shadow=0;strokeWidth=1;" vertex="1" parent="WIyWlLk6GJQsqaUBKTNV-1">
          <mxGeometry x="605" y="920" width="160" height="50" as="geometry">
            <mxRectangle x="340" y="380" width="170" height="26" as="alternateBounds" />
          </mxGeometry>
        </mxCell>
        <mxCell id="Gj214TnAQ4UsBlxBKr0H-116" value="" style="line;html=1;strokeWidth=1;align=left;verticalAlign=middle;spacingTop=-1;spacingLeft=3;spacingRight=3;rotatable=0;labelPosition=right;points=[];portConstraint=eastwest;" vertex="1" parent="Gj214TnAQ4UsBlxBKr0H-115">
          <mxGeometry y="26" width="160" height="8" as="geometry" />
        </mxCell>
        <mxCell id="Gj214TnAQ4UsBlxBKr0H-117" value="Settled" style="swimlane;fontStyle=0;align=center;verticalAlign=top;childLayout=stackLayout;horizontal=1;startSize=26;horizontalStack=0;resizeParent=1;resizeLast=0;collapsible=1;marginBottom=0;rounded=0;shadow=0;strokeWidth=1;" vertex="1" parent="WIyWlLk6GJQsqaUBKTNV-1">
          <mxGeometry x="795" y="920" width="160" height="50" as="geometry">
            <mxRectangle x="340" y="380" width="170" height="26" as="alternateBounds" />
          </mxGeometry>
        </mxCell>
        <mxCell id="Gj214TnAQ4UsBlxBKr0H-118" value="" style="line;html=1;strokeWidth=1;align=left;verticalAlign=middle;spacingTop=-1;spacingLeft=3;spacingRight=3;rotatable=0;labelPosition=right;points=[];portConstraint=eastwest;" vertex="1" parent="Gj214TnAQ4UsBlxBKr0H-117">
          <mxGeometry y="26" width="160" height="8" as="geometry" />
        </mxCell>
        <mxCell id="Gj214TnAQ4UsBlxBKr0H-119" value="" style="endArrow=block;endSize=10;endFill=0;shadow=0;strokeWidth=1;rounded=0;edgeStyle=elbowEdgeStyle;elbow=vertical;" edge="1" parent="WIyWlLk6GJQsqaUBKTNV-1" source="Gj214TnAQ4UsBlxBKr0H-115" target="Gj214TnAQ4UsBlxBKr0H-39">
          <mxGeometry width="160" relative="1" as="geometry">
            <mxPoint x="1015" y="595" as="sourcePoint" />
            <mxPoint x="1290" y="350" as="targetPoint" />
          </mxGeometry>
        </mxCell>
        <mxCell id="Gj214TnAQ4UsBlxBKr0H-120" value="" style="endArrow=block;endSize=10;endFill=0;shadow=0;strokeWidth=1;rounded=0;edgeStyle=elbowEdgeStyle;elbow=vertical;" edge="1" parent="WIyWlLk6GJQsqaUBKTNV-1" source="Gj214TnAQ4UsBlxBKr0H-117" target="Gj214TnAQ4UsBlxBKr0H-39">
          <mxGeometry width="160" relative="1" as="geometry">
            <mxPoint x="695" y="930" as="sourcePoint" />
            <mxPoint x="790" y="875" as="targetPoint" />
          </mxGeometry>
        </mxCell>
        <mxCell id="Gj214TnAQ4UsBlxBKr0H-121" value="1" style="resizable=0;align=right;verticalAlign=bottom;labelBackgroundColor=none;fontSize=12;" connectable="0" vertex="1" parent="WIyWlLk6GJQsqaUBKTNV-1">
          <mxGeometry x="390.0000000000001" y="119.99999999999994" as="geometry" />
        </mxCell>
        <mxCell id="Gj214TnAQ4UsBlxBKr0H-122" value="1" style="resizable=0;align=right;verticalAlign=bottom;labelBackgroundColor=none;fontSize=12;" connectable="0" vertex="1" parent="WIyWlLk6GJQsqaUBKTNV-1">
          <mxGeometry x="1200" y="373.99999999999994" as="geometry" />
        </mxCell>
        <mxCell id="Gj214TnAQ4UsBlxBKr0H-123" value="" style="endArrow=none;html=1;rounded=0;edgeStyle=orthogonalEdgeStyle;" edge="1" parent="WIyWlLk6GJQsqaUBKTNV-1">
          <mxGeometry x="0.5" y="41" relative="1" as="geometry">
            <mxPoint x="880" y="980" as="sourcePoint" />
            <mxPoint x="540" y="1106" as="targetPoint" />
            <mxPoint x="-40" y="32" as="offset" />
            <Array as="points">
              <mxPoint x="880" y="1026" />
              <mxPoint x="540" y="1026" />
            </Array>
          </mxGeometry>
        </mxCell>
        <mxCell id="Gj214TnAQ4UsBlxBKr0H-124" value="" style="resizable=0;align=left;verticalAlign=bottom;labelBackgroundColor=none;fontSize=12;" connectable="0" vertex="1" parent="Gj214TnAQ4UsBlxBKr0H-123">
          <mxGeometry x="-1" relative="1" as="geometry">
            <mxPoint y="4" as="offset" />
          </mxGeometry>
        </mxCell>
      </root>
    </mxGraphModel>
  </diagram>
</mxfile>
